<svg xmlns="http://www.w3.org/2000/svg" viewBox="0 0 256 256">
  <defs>
    <!-- Gradient for modern look -->
    <linearGradient id="bgGradient" x1="0%" y1="0%" x2="100%" y2="100%">
      <stop offset="0%" style="stop-color:#0078D4"/>
      <stop offset="100%" style="stop-color:#005A9E"/>
    </linearGradient>
    <linearGradient id="screenGradient" x1="0%" y1="0%" x2="100%" y2="100%">
      <stop offset="0%" style="stop-color:#FFFFFF"/>
      <stop offset="100%" style="stop-color:#E8E8E8"/>
    </linearGradient>
    <!-- Shadow filter -->
    <filter id="shadow" x="-20%" y="-20%" width="140%" height="140%">
      <feDropShadow dx="0" dy="2" stdDeviation="3" flood-opacity="0.3"/>
    </filter>
  </defs>

  <!-- Background rounded square -->
  <rect x="16" y="16" width="224" height="224" rx="48" ry="48" fill="url(#bgGradient)"/>

  <!-- Landscape screen (back) -->
  <g transform="translate(128, 128) rotate(-15) translate(-128, -128)" filter="url(#shadow)">
    <rect x="48" y="72" width="100" height="70" rx="6" ry="6" fill="url(#screenGradient)" stroke="#CCCCCC" stroke-width="2"/>
    <!-- Landscape content - mountain/sun -->
    <rect x="52" y="76" width="92" height="54" rx="3" ry="3" fill="#87CEEB"/>
    <circle cx="80" cy="92" r="10" fill="#FFD700"/>
    <path d="M52 130 L80 105 L100 118 L125 95 L144 130 Z" fill="#228B22"/>
  </g>

  <!-- Portrait screen (front) -->
  <g transform="translate(128, 128) rotate(15) translate(-128, -128)" filter="url(#shadow)">
    <rect x="118" y="58" width="70" height="100" rx="6" ry="6" fill="url(#screenGradient)" stroke="#CCCCCC" stroke-width="2"/>
    <!-- Portrait content - abstract image -->
    <rect x="122" y="62" width="62" height="84" rx="3" ry="3" fill="#E6F3FF"/>
    <circle cx="153" cy="90" r="15" fill="#FFB6C1"/>
    <rect x="130" y="115" width="46" height="25" rx="3" ry="3" fill="#98FB98"/>
  </g>

  <!-- Rotation arrow -->
  <g transform="translate(128, 188)">
    <path d="M-35 0 A35 35 0 1 1 0 -35" fill="none" stroke="#FFFFFF" stroke-width="6" stroke-linecap="round"/>
    <polygon points="-8,-40 8,-40 0,-55" fill="#FFFFFF" transform="rotate(-45)"/>
  </g>
</svg>
